<?xml version="1.0" encoding="UTF-8"?>
<svg version="1.1" xmlns="http://www.w3.org/2000/svg" width="626" height="626">
<path d="M0 0 C206.58 0 413.16 0 626 0 C626 206.58 626 413.16 626 626 C419.42 626 212.84 626 0 626 C0 419.42 0 212.84 0 0 Z " fill="#FEFEFE" transform="translate(0,0)"/>
<path d="M0 0 C12.20376073 1.29827242 23.160365 6.04896407 31.25 15.5625 C41.64604422 29.76404917 45.47327159 45.48252225 48.0625 62.625 C50.75261829 79.81730146 61.41456723 89.69989932 73.3125 101.375 C75.10144915 103.13624152 76.88885268 104.8989871 78.67338562 106.66470337 C79.77575918 107.75490343 80.88079539 108.84241962 81.98884583 109.92684937 C87.62136885 115.4854754 87.62136885 115.4854754 88.6875 119.75 C87.56527149 125.05508024 83.33397502 127.09652 79 130 C78.39671875 130.40476562 77.7934375 130.80953125 77.171875 131.2265625 C76.40617187 131.73316406 76.40617187 131.73316406 75.625 132.25 C71.23747569 135.09355692 71.23747569 135.09355692 69.25 139.75 C70.60847728 145.63673486 76.43459611 148.31769556 81.26953125 151.48828125 C83 153 83 153 83.4375 156.5 C83 160 83 160 81.859375 161.67578125 C79.22002463 163.55548666 77.01974745 163.51506734 73.8125 163.6875 C71.894375 163.790625 69.97625 163.89375 68 164 C72.62 165.32 77.24 166.64 82 168 C82.33 169.65 82.66 171.3 83 173 C82.39671875 173.17015625 81.7934375 173.3403125 81.171875 173.515625 C74.63195782 175.34726179 74.63195782 175.34726179 70 180 C69.46126707 186.36932353 70.66099997 190.30827056 73.5 195.9375 C76.27620475 201.85297806 78.23800219 206.35980646 77 213 C73.56950689 216.7361362 68.98764189 216.99452251 64.20703125 217.6640625 C63.32932571 217.79092438 62.45162018 217.91778625 61.5473175 218.04849243 C49.97593579 219.57675332 38.33732966 219.41721832 26.6862793 219.36035156 C5.77492217 219.29894289 -10.16313181 223.1410591 -25.953125 237.8671875 C-42.53955156 255.14999075 -53.31536297 284.27656369 -54.1015625 308.07421875 C-54.05128906 309.02748047 -54.05128906 309.02748047 -54 310 C-53.62415771 309.24662354 -53.62415771 309.24662354 -53.24072266 308.47802734 C-41.77330282 285.66280247 -27.80810163 264.67116757 -5 252 C-5 279.39 -5 306.78 -5 335 C-0.71 335.33 3.58 335.66 8 336 C10.51110029 336.4408802 13.0150139 336.93004906 15.5 337.5 C21.51299312 338.78626852 27.35143083 339.47202964 33.48828125 339.7890625 C36 340 36 340 38 341 C75.9198676 344.00589373 112.74159189 333.2914635 142 309 C142.84820312 308.31679688 143.69640625 307.63359375 144.5703125 306.9296875 C162.22446685 292.0002901 173.34891312 272.07189353 182 251 C182.47308594 249.87464844 182.94617188 248.74929688 183.43359375 247.58984375 C187.77536062 236.45814864 189.85702644 224.71588932 192 213 C192.13567383 212.28118652 192.27134766 211.56237305 192.41113281 210.82177734 C200.26815431 167.67455646 191.39286326 116.93253337 166.87060547 80.31347656 C151.99877463 58.91302176 132.18048346 41.88756611 108 32 C106.88882813 31.50628906 105.77765625 31.01257813 104.6328125 30.50390625 C100.83018902 28.92970191 97.01418959 27.63092155 93.0625 26.5 C92.30396729 26.27916748 91.54543457 26.05833496 90.76391602 25.83081055 C85.05965735 24.2834969 79.50077982 23.59370766 73.61962891 23.09106445 C58.29578284 21.74961069 58.29578284 21.74961069 53.6875 16.3125 C52.79417969 14.99185547 52.79417969 14.99185547 51.8828125 13.64453125 C49.04806994 9.66295301 45.27515058 7.33231151 41.28515625 4.59375 C39 3 39 3 37 1 C78.63506445 0.56180713 78.63506445 0.56180713 98 3 C99.21961426 3.15065918 100.43922852 3.30131836 101.69580078 3.45654297 C140.93416932 8.48759872 176.12693885 20.1581196 205 48 C205.77859375 48.71542969 206.5571875 49.43085938 207.359375 50.16796875 C234.70864209 76.01399598 248.96081943 114.59408387 254 151 C254.17362061 152.25127686 254.34724121 153.50255371 254.52612305 154.79174805 C255.042062 158.98634275 255.22789891 163.14785945 255.30859375 167.37109375 C255.32381073 168.15847427 255.33902771 168.9458548 255.35470581 169.75709534 C255.60512197 185.73827928 255.30533959 201.26292976 252.3125 217 C252.06878662 218.28318115 251.82507324 219.5663623 251.57397461 220.88842773 C249.00361749 233.31006198 245.47511785 245.66035273 240.125 257.1875 C239.78259277 257.93741211 239.44018555 258.68732422 239.08740234 259.45996094 C219.72833666 301.36432781 186.70279664 329.51585918 143.90527344 345.796875 C107.72847092 359.09309644 71.29412361 360.31633835 33.21930885 360.20278788 C28.23861886 360.19011538 23.25792531 360.18909722 18.27722168 360.18673706 C8.8856836 360.18057006 -0.50580681 360.16422539 -9.89732409 360.14403808 C-20.60625542 360.12152843 -31.31518927 360.11064813 -42.02413845 360.10064721 C-64.0161187 360.07985377 -86.00805632 360.04477289 -108 360 C-108 356.7 -108 353.4 -108 350 C-107.27522461 349.99589111 -106.55044922 349.99178223 -105.80371094 349.98754883 C-102.45170066 349.9542207 -99.10141516 349.88353543 -95.75 349.8125 C-94.61046875 349.80669922 -93.4709375 349.80089844 -92.296875 349.79492188 C-82.86906295 349.55386986 -74.38341361 347.65284467 -67 341.5 C-66.01 340.2625 -66.01 340.2625 -65 339 C-64.29875 338.236875 -63.5975 337.47375 -62.875 336.6875 C-56.61946391 327.72123161 -55.56508072 315.08185599 -57.44482422 304.49462891 C-57.6254541 303.60179199 -57.80608398 302.70895508 -57.9921875 301.7890625 C-59.26601677 294.36720229 -59.33679941 287.04681177 -59.31567383 279.5378418 C-59.31251848 277.20118264 -59.33604607 274.86580029 -59.36132812 272.52929688 C-59.40303159 262.63310988 -58.36533528 253.6214902 -56 244 C-55.81719482 243.22100342 -55.63438965 242.44200684 -55.44604492 241.6394043 C-48.93049627 215.42184145 -31.10109881 193.29744946 -14 173.0625 C7.42730124 147.45177328 19.13368546 122.74797674 20 89 C19.34 89 18.68 89 18 89 C17.99742187 89.83660156 17.99484375 90.67320312 17.9921875 91.53515625 C17.26943605 113.28997501 4.53779733 132.09774054 -9.85546875 147.66796875 C-11.75676192 149.7354952 -13.56928737 151.84952124 -15.375 154 C-23.45305507 163.22676932 -33.16938562 170.74702805 -43 178 C-43.5662207 178.41781738 -44.13244141 178.83563477 -44.71582031 179.26611328 C-51.27597621 184.07973416 -57.95019014 188.71860048 -64.75 193.1875 C-65.64513306 193.78606812 -65.64513306 193.78606812 -66.55834961 194.39672852 C-67.99943657 195.32855444 -69.49595904 196.17362721 -71 197 C-71.66 196.67 -72.32 196.34 -73 196 C-71.43765625 194.96166016 -71.43765625 194.96166016 -69.84375 193.90234375 C-54.98441854 183.83595046 -41.82361492 172.38235212 -31 158 C-30.25492187 157.04738281 -29.50984375 156.09476563 -28.7421875 155.11328125 C-23.29007431 148.04401585 -18.47397738 140.72293715 -14 133 C-13.66613281 132.42411133 -13.33226562 131.84822266 -12.98828125 131.25488281 C-7.24488436 121.23694628 -2.86590356 110.87107597 1 100 C1.39058594 98.90171875 1.78117187 97.8034375 2.18359375 96.671875 C4.31851913 90.19233495 5.81273752 83.61172 7.1875 76.9375 C7.35467529 76.1345752 7.52185059 75.33165039 7.6940918 74.50439453 C11.93877442 52.87641355 14.50692234 22.96745777 2.05078125 3.53125 C1.70402344 3.0259375 1.35726562 2.520625 1 2 C0.505 1.01 0.505 1.01 0 0 Z " fill="#822147" transform="translate(248,133)"/>
<path d="M0 0 C12.20376073 1.29827242 23.160365 6.04896407 31.25 15.5625 C41.64604422 29.76404917 45.47327159 45.48252225 48.0625 62.625 C50.75261829 79.81730146 61.41456723 89.69989932 73.3125 101.375 C75.10144915 103.13624152 76.88885268 104.8989871 78.67338562 106.66470337 C79.77575918 107.75490343 80.88079539 108.84241962 81.98884583 109.92684937 C87.62136885 115.4854754 87.62136885 115.4854754 88.6875 119.75 C87.56527149 125.05508024 83.33397502 127.09652 79 130 C78.39671875 130.40476562 77.7934375 130.80953125 77.171875 131.2265625 C76.40617187 131.73316406 76.40617187 131.73316406 75.625 132.25 C71.23747569 135.09355692 71.23747569 135.09355692 69.25 139.75 C70.60847728 145.63673486 76.43459611 148.31769556 81.26953125 151.48828125 C83 153 83 153 83.4375 156.5 C83 160 83 160 81.859375 161.67578125 C79.22002463 163.55548666 77.01974745 163.51506734 73.8125 163.6875 C71.894375 163.790625 69.97625 163.89375 68 164 C72.62 165.32 77.24 166.64 82 168 C82.33 169.65 82.66 171.3 83 173 C82.39671875 173.17015625 81.7934375 173.3403125 81.171875 173.515625 C74.63195782 175.34726179 74.63195782 175.34726179 70 180 C69.46126707 186.36932353 70.66099997 190.30827056 73.5 195.9375 C76.27620475 201.85297806 78.23800219 206.35980646 77 213 C73.56950689 216.7361362 68.98764189 216.99452251 64.20703125 217.6640625 C63.32932571 217.79092438 62.45162018 217.91778625 61.5473175 218.04849243 C49.97593579 219.57675332 38.33732966 219.41721832 26.6862793 219.36035156 C5.77492217 219.29894289 -10.16313181 223.1410591 -25.953125 237.8671875 C-42.89289869 255.51817307 -54 285.67338267 -54 310 C-52.35 307.03 -50.7 304.06 -49 301 C-47.9079262 305.3682952 -48.07751413 306.15502826 -50 310 C-50.7734375 310.86625 -50.7734375 310.86625 -51.5625 311.75 C-53.50327664 314.78773734 -53.54514348 317.52577782 -53.7890625 321.07421875 C-54 323 -54 323 -55 324 C-55.144375 325.155 -55.28875 326.31 -55.4375 327.5 C-55.623125 328.655 -55.80875 329.81 -56 331 C-56.66 331.33 -57.32 331.66 -58 332 C-58.38218767 330.34385343 -58.71395102 328.67542976 -59 327 C-58.67 326.67 -58.34 326.34 -58 326 C-56.82905253 317.80336769 -56.3429693 309.94099654 -57.9921875 301.7890625 C-59.26601677 294.36720229 -59.33679941 287.04681177 -59.31567383 279.5378418 C-59.31251848 277.20118264 -59.33604607 274.86580029 -59.36132812 272.52929688 C-59.40303159 262.63310988 -58.36533528 253.6214902 -56 244 C-55.72579224 242.83150513 -55.72579224 242.83150513 -55.44604492 241.6394043 C-48.93049627 215.42184145 -31.10109881 193.29744946 -14 173.0625 C7.42730124 147.45177328 19.13368546 122.74797674 20 89 C19.34 89 18.68 89 18 89 C17.99742187 89.83660156 17.99484375 90.67320312 17.9921875 91.53515625 C17.26943605 113.28997501 4.53779733 132.09774054 -9.85546875 147.66796875 C-11.75676192 149.7354952 -13.56928737 151.84952124 -15.375 154 C-23.45305507 163.22676932 -33.16938562 170.74702805 -43 178 C-43.84933105 178.62672607 -43.84933105 178.62672607 -44.71582031 179.26611328 C-51.27597621 184.07973416 -57.95019014 188.71860048 -64.75 193.1875 C-65.34675537 193.58654541 -65.94351074 193.98559082 -66.55834961 194.39672852 C-67.99943657 195.32855444 -69.49595904 196.17362721 -71 197 C-71.66 196.67 -72.32 196.34 -73 196 C-71.43765625 194.96166016 -71.43765625 194.96166016 -69.84375 193.90234375 C-54.98441854 183.83595046 -41.82361492 172.38235212 -31 158 C-30.25492188 157.04738281 -29.50984375 156.09476563 -28.7421875 155.11328125 C-23.29007431 148.04401585 -18.47397738 140.72293715 -14 133 C-13.66613281 132.42411133 -13.33226562 131.84822266 -12.98828125 131.25488281 C-7.24488436 121.23694628 -2.86590356 110.87107597 1 100 C1.39058594 98.90171875 1.78117187 97.8034375 2.18359375 96.671875 C4.31851913 90.19233495 5.81273752 83.61172 7.1875 76.9375 C7.35467529 76.1345752 7.52185059 75.33165039 7.6940918 74.50439453 C11.93877442 52.87641355 14.50692234 22.96745777 2.05078125 3.53125 C1.70402344 3.0259375 1.35726562 2.520625 1 2 C0.505 1.01 0.505 1.01 0 0 Z " fill="#8F1746" transform="translate(248,133)"/>
<path d="M0 0 C3.94265871 3.94265871 4.57909483 10.69202092 6 16 C6.45826172 17.43666016 6.45826172 17.43666016 6.92578125 18.90234375 C15.11113197 47.18253651 5.88020044 78.28002326 -7.8125 103.25 C-17.0379331 119.56408017 -28.8712777 133.80850017 -41.60595703 147.49267578 C-42.96570977 148.96292331 -44.30926586 150.44809818 -45.65234375 151.93359375 C-50.66374035 157.47482964 -55.80025897 162.82115853 -61.125 168.0625 C-66.87569662 173.7409829 -72.02961096 179.61802048 -77 186 C-77.62390625 186.74507812 -78.2478125 187.49015625 -78.890625 188.2578125 C-87.84474548 199.11954995 -91.98096874 209.99395447 -91.2265625 223.95361328 C-90.25663001 232.71436128 -84.6678459 240.74960019 -80 248 C-89.90378787 243.57630809 -95.23273255 233.81900034 -99.14453125 224.1796875 C-103.03725709 209.71083436 -98.82392895 196.53897323 -91.68188477 184.03637695 C-85.59161412 173.72273926 -78.10401753 164.79181238 -70 156 C-68.82831428 154.67107507 -67.66135294 153.33796422 -66.5 152 C-63.86310364 148.97245233 -61.18983431 145.98062721 -58.5 143 C-25.64385763 106.536342 0.94021423 69.50467346 0.1875 18.5 C0.17240419 16.69402176 0.15872457 14.8880311 0.14648438 13.08203125 C0.1139164 8.72103912 0.06241407 4.36066286 0 0 Z " fill="#971A4A" transform="translate(236,136)"/>
<path d="M0 0 C0.33 0 0.66 0 1 0 C1.9188623 27.10643775 -9.37462295 55.8352683 -27.8125 75.6875 C-29.33153922 77.27643366 -30.86626494 78.84677475 -32.41601562 80.40576172 C-34.04837462 82.04868778 -35.65764771 83.7121355 -37.265625 85.37890625 C-43.80565562 92.10111583 -50.61899404 98.19833593 -58 104 C-65.20021915 109.79258137 -72.21939921 115.71951213 -79 122 C-79.95712891 122.85851562 -79.95712891 122.85851562 -80.93359375 123.734375 C-92.13198213 134.20948217 -98.57957378 149.08485263 -99.5625 164.25 C-99.64628906 165.51328125 -99.73007813 166.7765625 -99.81640625 168.078125 C-99.87699219 169.04234375 -99.93757813 170.0065625 -100 171 C-104.57266229 166.42733771 -104.15680992 157.71596509 -104.3125 151.5625 C-103.77618633 126.29616704 -87.07139629 109.34277036 -69.97412109 92.8515625 C-66.750122 89.82771769 -63.33777248 87.08372515 -59.8671875 84.3515625 C-31.49190079 61.07918838 -13.17313582 34.03741926 0 0 Z " fill="#941746" transform="translate(227,142)"/>
<path d="M0 0 C26.07 0 52.14 0 79 0 C76.74697871 9.01208517 76.74697871 9.01208517 75.484375 11.89453125 C75.20634033 12.53390625 74.92830566 13.17328125 74.6418457 13.83203125 C74.34753662 14.48558594 74.05322754 15.13914063 73.75 15.8125 C73.28049927 16.86050781 73.28049927 16.86050781 72.80151367 17.9296875 C67.35188036 29.94959464 60.6671026 40.98379968 52 51 C51.67 51 51.34 51 51 51 C50.93530518 50.44650879 50.87061035 49.89301758 50.80395508 49.32275391 C49.15414049 31.60386613 49.15414049 31.60386613 39.25 17.5625 C35.11860778 14.79258931 30.78728011 13.25081191 26 12 C25.40445313 11.83032715 24.80890625 11.6606543 24.1953125 11.48583984 C21.70107254 10.93384501 19.34930361 10.78747166 16.796875 10.68359375 C15.8171875 10.64169922 14.8375 10.59980469 13.828125 10.55664062 C12.81234375 10.51732422 11.7965625 10.47800781 10.75 10.4375 C9.71875 10.39431641 8.6875 10.35113281 7.625 10.30664062 C5.08348412 10.20074413 2.54175923 10.09988519 0 10 C0 6.7 0 3.4 0 0 Z " fill="#881E45" transform="translate(141,133)"/>
<path d="M0 0 C1.1875 1.6875 1.1875 1.6875 2 4 C0.8125 6.6875 0.8125 6.6875 -1 9 C-1.99 9.33 -2.98 9.66 -4 10 C-4.66 10.99 -5.32 11.98 -6 13 C-6.78375 13.309375 -7.5675 13.61875 -8.375 13.9375 C-11.34292519 15.13880305 -12.79969362 16.72382098 -15 19 C-15.66 19 -16.32 19 -17 19 C-17 18.34 -17 17.68 -17 17 C-18.134375 17.31710937 -19.26875 17.63421875 -20.4375 17.9609375 C-24.96003145 19.09157036 -29.35505777 19.43179616 -34 19.625 C-35.16208984 19.68300781 -35.16208984 19.68300781 -36.34765625 19.7421875 C-38.23143415 19.83521357 -40.11568256 19.91863175 -42 20 C-42.33 20.99 -42.66 21.98 -43 23 C-41.88488037 22.99476318 -40.76976074 22.98952637 -39.62084961 22.98413086 C-2.41140843 22.82951592 34.79243805 23.15214862 72 23.5 C73.27938068 23.51195782 74.55876137 23.52391563 75.87691116 23.53623581 C91.91798263 23.68656108 107.95900934 23.84129452 124 24 C124 24.33 124 24.66 124 25 C123.13086283 24.99907821 122.26172565 24.99815641 121.36625099 24.99720669 C100.24384735 24.97514758 79.1214457 24.95858655 57.99903297 24.94818783 C47.78450737 24.94302577 37.56998943 24.93598477 27.35546875 24.92456055 C18.45522792 24.91461098 9.55499265 24.90814592 0.65474641 24.90591151 C-4.06031903 24.90460487 -8.77536857 24.90152194 -13.49042892 24.89426994 C-17.92427213 24.88750543 -22.35809281 24.88538393 -26.79194069 24.88689232 C-28.42300984 24.88661619 -30.05407972 24.88461361 -31.68514442 24.88079453 C-33.90465684 24.87585057 -36.12408318 24.87700433 -38.34359741 24.87974548 C-39.58801794 24.87882369 -40.83243847 24.8779019 -42.11456871 24.87695217 C-44.94181396 24.80061543 -44.94181396 24.80061543 -47 26 C-47 22.7 -47 19.4 -47 16 C-46.27522461 15.99589111 -45.55044922 15.99178223 -44.80371094 15.98754883 C-41.45170066 15.9542207 -38.10141516 15.88353543 -34.75 15.8125 C-33.61046875 15.80669922 -32.4709375 15.80089844 -31.296875 15.79492188 C-21.86906295 15.55386986 -13.38341361 13.65284467 -6 7.5 C-5.34 6.675 -4.68 5.85 -4 5 C-3.236875 4.071875 -2.47375 3.14375 -1.6875 2.1875 C-1.130625 1.465625 -0.57375 0.74375 0 0 Z " fill="#C3226A" transform="translate(187,467)"/>
<path d="M0 0 C0.99 0.66 1.98 1.32 3 2 C3.1875 4.625 3.1875 4.625 3 7 C3.66 7 4.32 7 5 7 C5 7.66 5 8.32 5 9 C6.32 8.67 7.64 8.34 9 8 C8.56429687 8.62003906 8.12859375 9.24007813 7.6796875 9.87890625 C0.4388844 20.6460745 -4.71840833 32.22687131 -5.5625 45.25 C-5.68818359 47.14492188 -5.68818359 47.14492188 -5.81640625 49.078125 C-5.87699219 50.04234375 -5.93757813 51.0065625 -6 52 C-10.57266229 47.42733771 -10.15680992 38.71596509 -10.3125 32.5625 C-10.05192453 20.28649999 -5.71493441 10.58437167 0 0 Z " fill="#9D1D4E" transform="translate(133,261)"/>
<path d="M0 0 C-1.98232309 5.78678156 -5.59704022 8.91939977 -10 13 C-10.598125 13.55558594 -11.19625 14.11117188 -11.8125 14.68359375 C-24.80502273 26.36006353 -39.17234602 36.60110798 -53.75 46.1875 C-54.34683594 46.58662598 -54.94367188 46.98575195 -55.55859375 47.39697266 C-56.99962102 48.3286858 -58.49605664 49.17368084 -60 50 C-60.66 49.67 -61.32 49.34 -62 49 C-60.9584375 48.30777344 -59.916875 47.61554688 -58.84375 46.90234375 C-43.98102734 36.8336531 -30.83504102 25.37983839 -20 11 C-18.69061307 9.26847481 -17.37830243 7.53915503 -16.0625 5.8125 C-15.51722656 5.07644531 -14.97195312 4.34039062 -14.41015625 3.58203125 C-13.94480469 3.05996094 -13.47945312 2.53789062 -13 2 C-12.34 2 -11.68 2 -11 2 C-11 3.32 -11 4.64 -11 6 C-9.35 5.67 -7.7 5.34 -6 5 C-5.896875 4.360625 -5.79375 3.72125 -5.6875 3.0625 C-5.460625 2.381875 -5.23375 1.70125 -5 1 C-2 0 -2 0 0 0 Z " fill="#9A204C" transform="translate(237,280)"/>
<path d="M0 0 C0.66 0.33 1.32 0.66 2 1 C1.99476318 1.66531738 1.98952637 2.33063477 1.98413086 3.01611328 C1.96324747 6.05239911 1.9503038 9.08866978 1.9375 12.125 C1.92912109 13.17171875 1.92074219 14.2184375 1.91210938 15.296875 C1.90888672 16.31523437 1.90566406 17.33359375 1.90234375 18.3828125 C1.89448853 19.78104248 1.89448853 19.78104248 1.88647461 21.20751953 C1.96460402 24.55349684 1.96460402 24.55349684 3 30 C4.32 26.04 5.64 22.08 7 18 C7.33 18 7.66 18 8 18 C7.53563725 25.70201666 6.2627802 33.09213671 4.62109375 40.6171875 C3.84951312 44.24640673 3.84951312 44.24640673 4 49 C5.65 46.03 7.3 43.06 9 40 C10.0920738 44.3682952 9.92248587 45.15502826 8 49 C7.484375 49.5775 6.96875 50.155 6.4375 50.75 C4.49672336 53.78773734 4.45485652 56.52577782 4.2109375 60.07421875 C4 62 4 62 3 63 C2.7834375 64.7325 2.7834375 64.7325 2.5625 66.5 C2.376875 67.655 2.19125 68.81 2 70 C1.01 70.495 1.01 70.495 0 71 C-0.38218767 69.34385343 -0.71395102 67.67542976 -1 66 C-0.505 65.505 -0.505 65.505 0 65 C1.07900124 57.44699129 1.55574393 49.9809853 0.49780273 42.40258789 C-0.0752032 37.89026216 -0.12734171 33.44948712 -0.09765625 28.90625 C-0.0962413 28.07411987 -0.09482635 27.24198975 -0.09336853 26.38464355 C-0.08782167 23.7563907 -0.07527945 21.12822662 -0.0625 18.5 C-0.05747812 16.70573041 -0.05291642 14.91145946 -0.04882812 13.1171875 C-0.03786972 8.74475805 -0.02064248 4.37239402 0 0 Z " fill="#B11D52" transform="translate(190,394)"/>
<path d="M0 0 C1.1875 1.6875 1.1875 1.6875 2 4 C0.8125 6.6875 0.8125 6.6875 -1 9 C-1.99 9.33 -2.98 9.66 -4 10 C-4.66 10.99 -5.32 11.98 -6 13 C-6.78375 13.309375 -7.5675 13.61875 -8.375 13.9375 C-11.34292519 15.13880305 -12.79969362 16.72382098 -15 19 C-15.66 19 -16.32 19 -17 19 C-17 18.34 -17 17.68 -17 17 C-18.134375 17.31710937 -19.26875 17.63421875 -20.4375 17.9609375 C-24.96003145 19.09157036 -29.35505777 19.43179616 -34 19.625 C-35.16208984 19.68300781 -35.16208984 19.68300781 -36.34765625 19.7421875 C-38.23143415 19.83521357 -40.11568256 19.91863175 -42 20 C-42.33 21.65 -42.66 23.3 -43 25 C-44.32 25.33 -45.64 25.66 -47 26 C-47 22.7 -47 19.4 -47 16 C-46.27522461 15.99589111 -45.55044922 15.99178223 -44.80371094 15.98754883 C-41.45170066 15.9542207 -38.10141516 15.88353543 -34.75 15.8125 C-33.61046875 15.80669922 -32.4709375 15.80089844 -31.296875 15.79492188 C-21.86906295 15.55386986 -13.38341361 13.65284467 -6 7.5 C-5.34 6.675 -4.68 5.85 -4 5 C-3.236875 4.071875 -2.47375 3.14375 -1.6875 2.1875 C-1.130625 1.465625 -0.57375 0.74375 0 0 Z " fill="#C2477C" transform="translate(187,467)"/>
<path d="M0 0 C2.69767479 2.69767479 3.05992728 5.20779484 4.0625 8.875 C4.40410156 10.10992187 4.74570313 11.34484375 5.09765625 12.6171875 C5.39542969 13.73351562 5.69320312 14.84984375 6 16 C6.20367187 16.71929687 6.40734375 17.43859375 6.6171875 18.1796875 C7.30268145 21.43928118 7.05532694 24.68038373 7 28 C6.01 28 5.02 28 4 28 C4.185625 29.051875 4.37125 30.10375 4.5625 31.1875 C4.95079331 34.57119882 4.88247485 36.76425888 4 40 C3.01 40 2.02 40 1 40 C0.67 26.8 0.34 13.6 0 0 Z " fill="#771D3B" transform="translate(236,136)"/>
<path d="M0 0 C2.475 1.485 2.475 1.485 5 3 C-3.49502653 11.75712354 -13.5381428 18.50419778 -23.6875 25.1875 C-24.5731665 25.77660156 -25.45883301 26.36570312 -26.37133789 26.97265625 C-27.20141357 27.51148438 -28.03148926 28.0503125 -28.88671875 28.60546875 C-29.63139404 29.09168701 -30.37606934 29.57790527 -31.14331055 30.07885742 C-32.06237183 30.534823 -32.06237183 30.534823 -33 31 C-33.66 30.67 -34.32 30.34 -35 30 C-33.9584375 29.30777344 -32.916875 28.61554688 -31.84375 27.90234375 C-14.10979965 15.88398306 -14.10979965 15.88398306 0 0 Z " fill="#9D1E4B" transform="translate(210,299)"/>
<path d="M0 0 C0.33 0 0.66 0 1 0 C1.3962341 11.68890607 -0.96207875 22.75969139 -4 34 C-5.31538327 29.84228506 -4.34433068 27.1120703 -3 23 C-3.598125 23.495 -4.19625 23.99 -4.8125 24.5 C-7 26 -7 26 -10 26 C-9.18120716 22.05581496 -7.63558393 18.40501021 -6.125 14.6875 C-5.86847656 14.04876953 -5.61195313 13.41003906 -5.34765625 12.75195312 C-3.62320491 8.47548711 -1.82891676 4.23279238 0 0 Z " fill="#7D2040" transform="translate(227,142)"/>
<path d="M0 0 C0.33 0 0.66 0 1 0 C1.01417969 0.79921875 1.02835938 1.5984375 1.04296875 2.421875 C1.59098811 15.04113155 6.24895954 24.51384781 13 35 C5.66845108 31.75060527 0.36707923 25.11227321 -3.23046875 18.09765625 C-4.34437365 15.06127589 -3.94912493 13.05075869 -3 10 C-2.855625 8.96875 -2.71125 7.9375 -2.5625 6.875 C-2.04359404 4.22281396 -1.34103019 2.32445234 0 0 Z " fill="#AE275C" transform="translate(143,349)"/>
<path d="M0 0 C0.99 0.66 1.98 1.32 3 2 C2.814375 2.99 2.62875 3.98 2.4375 5 C1.82338317 9.17087678 2.34479095 12.85034269 3 17 C3.66 16.67 4.32 16.34 5 16 C5.08131463 17.43655854 5.13933559 18.8744483 5.1875 20.3125 C5.22230469 21.11300781 5.25710937 21.91351563 5.29296875 22.73828125 C4.93015179 25.53922821 4.00944933 26.11202871 2 28 C1.28552357 30.10332891 1.28552357 30.10332891 1 32 C-1.8370133 26.44418229 -2.30190024 21.57409941 -2.3125 15.4375 C-2.31765625 14.71763916 -2.3228125 13.99777832 -2.328125 13.25610352 C-2.26720961 8.499808 -1.48995812 4.51736307 0 0 Z " fill="#A71B51" transform="translate(138,333)"/>
<path d="M0 0 C2 2 2 2 2.22705078 5.89892578 C2.22673341 7.58108793 2.21539396 9.26327019 2.1953125 10.9453125 C2.1924826 11.8303244 2.18965271 12.7153363 2.18673706 13.62716675 C2.1755224 16.45991412 2.1504157 19.29234784 2.125 22.125 C2.11497185 24.04296419 2.10584572 25.96093333 2.09765625 27.87890625 C2.07557889 32.58605876 2.04104045 37.29297616 2 42 C1.01 42.495 1.01 42.495 0 43 C-1.36192067 28.57823293 -1.14496733 14.41432085 0 0 Z " fill="#713B50" transform="translate(501,290)"/>
<path d="M0 0 C12.21 0 24.42 0 37 0 C37 0.33 37 0.66 37 1 C38.98 1.33 40.96 1.66 43 2 C43 2.33 43 2.66 43 3 C42.0713916 2.98428955 41.1427832 2.9685791 40.18603516 2.95239258 C36.74571171 2.90131147 33.30579024 2.86367393 29.86523438 2.83520508 C28.37526091 2.820104 26.88533199 2.79962142 25.39550781 2.77368164 C23.2557477 2.73735416 21.11657434 2.72028779 18.9765625 2.70703125 C17.68830566 2.6913208 16.40004883 2.67561035 15.07275391 2.65942383 C14.05874512 2.77181396 13.04473633 2.8842041 12 3 C11.01 4.485 11.01 4.485 10 6 C3.375 3.375 3.375 3.375 0 0 Z " fill="#741F3C" transform="translate(285,134)"/>
<path d="M0 0 C2.09350689 3.4019487 2.17942163 6.05272412 2 10 C3.65 7.03 5.3 4.06 7 1 C8.0920738 5.3682952 7.92248587 6.15502826 6 10 C5.484375 10.5775 4.96875 11.155 4.4375 11.75 C2.49672336 14.78773734 2.45485652 17.52577782 2.2109375 21.07421875 C2 23 2 23 1 24 C0.855625 25.155 0.71125 26.31 0.5625 27.5 C0.376875 28.655 0.19125 29.81 0 31 C-0.66 31.33 -1.32 31.66 -2 32 C-2.38218767 30.34385343 -2.71395102 28.67542976 -3 27 C-2.67 26.67 -2.34 26.34 -2 26 C-1.09775561 19.88478804 -0.93178939 13.97295116 -1.0625 7.796875 C-1.00163159 5.07301348 -0.61844554 2.64771995 0 0 Z " fill="#B2265C" transform="translate(192,433)"/>
<path d="M0 0 C-0.56149357 3.25666272 -1.37229986 4.95623323 -4 7 C-4.61230469 7.12890625 -5.22460938 7.2578125 -5.85546875 7.390625 C-9.1795541 8.33517384 -11.3754308 10.54405877 -14 12.72265625 C-16 14 -16 14 -20 14 C-20.33 13.01 -20.66 12.02 -21 11 C-20.03578125 10.45730469 -19.0715625 9.91460937 -18.078125 9.35546875 C-16.80200123 8.6329575 -15.52596412 7.91029317 -14.25 7.1875 C-13.61578125 6.83107422 -12.9815625 6.47464844 -12.328125 6.10742188 C-9.66084586 4.59318528 -7.16044639 3.1247609 -4.734375 1.23828125 C-3 0 -3 0 0 0 Z " fill="#9B1E4C" transform="translate(384,449)"/>
<path d="M0 0 C1.1875 1.6875 1.1875 1.6875 2 4 C0.8125 6.6875 0.8125 6.6875 -1 9 C-1.99 9.33 -2.98 9.66 -4 10 C-4.99 11.485 -4.99 11.485 -6 13 C-6.78375 13.309375 -7.5675 13.61875 -8.375 13.9375 C-11.34292519 15.13880305 -12.79969362 16.72382098 -15 19 C-15.66 19 -16.32 19 -17 19 C-17.33 17.35 -17.66 15.7 -18 14 C-17.33613281 13.69707031 -16.67226562 13.39414062 -15.98828125 13.08203125 C-9.07652968 9.80273306 -4.44102783 6.31093429 0 0 Z " fill="#BB2763" transform="translate(187,467)"/>
<path d="M0 0 C0.66 0 1.32 0 2 0 C1.66666667 1.33333333 1.33333333 2.66666667 1 4 C0.87625 4.680625 0.7525 5.36125 0.625 6.0625 C-0.12480741 8.38690298 -1.25731998 9.32993165 -3 11 C-3.33 11.99 -3.66 12.98 -4 14 C-5.25 15.375 -5.25 15.375 -7 17 C-7.886875 17.886875 -8.77375 18.77375 -9.6875 19.6875 C-10.450625 20.450625 -11.21375 21.21375 -12 22 C-12 14.16417726 -5.26253931 5.67466589 0 0 Z " fill="#AB2557" transform="translate(214,410)"/>
<path d="M0 0 C2.67021551 1.28559054 4.79091861 1.33387739 7.74707031 1.42822266 C8.81699219 1.46689453 9.88691406 1.50556641 10.98925781 1.54541016 C12.65601563 1.59181641 12.65601563 1.59181641 14.35644531 1.63916016 C15.48308594 1.67783203 16.60972656 1.71650391 17.77050781 1.75634766 C20.54899079 1.85053352 23.32746865 1.93615602 26.10644531 2.01416016 C26.10644531 2.34416016 26.10644531 2.67416016 26.10644531 3.01416016 C16.14788935 4.18047752 6.71295904 3.79101817 -3.20605469 2.45166016 C-7.16465344 1.9819959 -10.91221207 1.94306475 -14.89355469 2.01416016 C-14.89355469 1.35416016 -14.89355469 0.69416016 -14.89355469 0.01416016 C-10.29641394 -1.13512503 -4.33960399 -2.25932451 0 0 Z " fill="#AC2F60" transform="translate(285.8935546875,473.98583984375)"/>
<path d="M0 0 C0.33 0.99 0.66 1.98 1 3 C0.03125 4.5859375 0.03125 4.5859375 -1.5 6.375 C-5.82169897 11.79234096 -8.83822357 17.8635345 -12 24 C-12.66 23.67 -13.32 23.34 -14 23 C-14 21.35 -14 19.7 -14 18 C-13.34 18 -12.68 18 -12 18 C-10.92474806 15.34771188 -9.90543849 12.71631546 -9 10 C-8.34 10 -7.68 10 -7 10 C-6.67 8.68 -6.34 7.36 -6 6 C-5.34 6 -4.68 6 -4 6 C-4 5.34 -4 4.68 -4 4 C-3.34 4 -2.68 4 -2 4 C-1.34 2.68 -0.68 1.36 0 0 Z " fill="#A7285B" transform="translate(218,372)"/>
<path d="M0 0 C0.87398438 0.10183594 1.74796875 0.20367187 2.6484375 0.30859375 C3.62683594 0.43427734 3.62683594 0.43427734 4.625 0.5625 C4.625 1.2225 4.625 1.8825 4.625 2.5625 C-8.575 2.5625 -21.775 2.5625 -35.375 2.5625 C-35.375 2.2325 -35.375 1.9025 -35.375 1.5625 C-34.67938965 1.53744385 -33.9837793 1.5123877 -33.26708984 1.48657227 C-30.09456545 1.37004026 -26.92229645 1.24757432 -23.75 1.125 C-22.10837891 1.06602539 -22.10837891 1.06602539 -20.43359375 1.00585938 C-18.83837891 0.94301758 -18.83837891 0.94301758 -17.2109375 0.87890625 C-15.74986572 0.82391968 -15.74986572 0.82391968 -14.25927734 0.76782227 C-1.28235643 -0.15596227 -1.28235643 -0.15596227 0 0 Z " fill="#9A214F" transform="translate(323.375,473.4375)"/>
<path d="M0 0 C0.99 0.33 1.98 0.66 3 1 C1.72496084 4.82511749 0.2814906 5.42268265 -3.05859375 7.609375 C-4.08404297 8.28097656 -5.10949219 8.95257813 -6.16601562 9.64453125 C-7.78540039 10.68673828 -7.78540039 10.68673828 -9.4375 11.75 C-10.51322266 12.46027344 -11.58894531 13.17054688 -12.69726562 13.90234375 C-13.72400391 14.56878906 -14.75074219 15.23523438 -15.80859375 15.921875 C-16.75532959 16.53643555 -17.70206543 17.15099609 -18.67749023 17.78417969 C-19.44391846 18.18540039 -20.21034668 18.58662109 -21 19 C-21.66 18.67 -22.32 18.34 -23 18 C-22.51644043 17.66790527 -22.03288086 17.33581055 -21.53466797 16.99365234 C-19.31025704 15.4605477 -17.09264756 13.91786993 -14.875 12.375 C-14.11445313 11.85292969 -13.35390625 11.33085937 -12.5703125 10.79296875 C-7.90458665 7.53500501 -3.89887378 4.1480031 0 0 Z " fill="#A45470" transform="translate(198,311)"/>
<path d="M0 0 C2 2 2 2 2.22705078 4.52197266 C2.21657715 5.5588623 2.20610352 6.59575195 2.1953125 7.6640625 C2.18886719 8.78554687 2.18242187 9.90703125 2.17578125 11.0625 C2.15902344 12.238125 2.14226562 13.41375 2.125 14.625 C2.11597656 15.80835938 2.10695313 16.99171875 2.09765625 18.2109375 C2.07402812 21.14082523 2.04108514 24.0703134 2 27 C1.01 27.33 0.02 27.66 -1 28 C-0.67 18.76 -0.34 9.52 0 0 Z " fill="#841634" transform="translate(268,222)"/>
<path d="M0 0 C0.66 0.33 1.32 0.66 2 1 C1.67 2.32 1.34 3.64 1 5 C0.67 5 0.34 5 0 5 C-0.268125 6.093125 -0.53625 7.18625 -0.8125 8.3125 C-1.92412456 11.7643868 -2.41715346 12.75404649 -5 15 C-5.33 15.99 -5.66 16.98 -6 18 C-6.99 18 -7.98 18 -9 18 C-7.65072455 13.46152802 -5.80840652 9.68067754 -3.375 5.625 C-2.74335938 4.56539063 -2.11171875 3.50578125 -1.4609375 2.4140625 C-0.73777344 1.21910156 -0.73777344 1.21910156 0 0 Z " fill="#9E2150" transform="translate(209,339)"/>
<path d="M0 0 C0.66 0.33 1.32 0.66 2 1 C0.8487239 4.22357307 -0.0831722 5.05261915 -3.0625 6.9375 C-6.21225644 8.70633249 -6.21225644 8.70633249 -6.875 11.75 C-6.91625 12.4925 -6.9575 13.235 -7 14 C-8.65 14.33 -10.3 14.66 -12 15 C-12 12 -12 12 -9.375 9.08203125 C-8.25750594 7.98449244 -7.13214357 6.89492105 -6 5.8125 C-5.42765625 5.25369141 -4.8553125 4.69488281 -4.265625 4.11914062 C-2.85037212 2.73926907 -1.42602845 1.36873266 0 0 Z " fill="#A32455" transform="translate(230,393)"/>
<path d="M0 0 C1.32 0.33 2.64 0.66 4 1 C4 1.66 4 2.32 4 3 C-2.27 5.31 -8.54 7.62 -15 10 C-15.33 9.01 -15.66 8.02 -16 7 C-12.7 6.34 -9.4 5.68 -6 5 C-6 4.34 -6 3.68 -6 3 C-4.02 2.67 -2.04 2.34 0 2 C0 1.34 0 0.68 0 0 Z " fill="#9A1C4C" transform="translate(400,471)"/>
<path d="M0 0 C-2.31 1.32 -4.62 2.64 -7 4 C-7 4.99 -7 5.98 -7 7 C-10.37810112 6.39676766 -12.32255812 5.09807945 -15 3 C-13.25531628 2.29911844 -11.50398839 1.61475991 -9.75 0.9375 C-8.77546875 0.55464844 -7.8009375 0.17179687 -6.796875 -0.22265625 C-3.95992605 -1.01113787 -2.70590448 -1.02437812 0 0 Z " fill="#A32353" transform="translate(363,463)"/>
<path d="M0 0 C2.46301423 2.46301423 2.76766521 4.27360036 3.625 7.625 C3.88539063 8.62789062 4.14578125 9.63078125 4.4140625 10.6640625 C4.60742188 11.43492187 4.80078125 12.20578125 5 13 C4.01 13 3.02 13 2 13 C2 17.95 2 22.9 2 28 C1.67 28 1.34 28 1 28 C0.67 18.76 0.34 9.52 0 0 Z " fill="#7A4658" transform="translate(236,136)"/>
<path d="M0 0 C0.66 0.33 1.32 0.66 2 1 C1.731875 1.66 1.46375 2.32 1.1875 3 C0.52710036 4.66837804 -0.1171894 6.34432616 -0.6953125 8.04296875 C-0.94023437 8.75066406 -1.18515625 9.45835937 -1.4375 10.1875 C-1.66308594 10.86167969 -1.88867188 11.53585937 -2.12109375 12.23046875 C-3 14 -3 14 -6 16 C-5.59683075 9.68368172 -3.28767869 5.35006016 0 0 Z " fill="#AA2256" transform="translate(146,317)"/>
<path d="M0 0 C-1 3 -1 3 -3.14453125 4.38671875 C-4.02496094 4.81597656 -4.90539062 5.24523437 -5.8125 5.6875 C-6.68519531 6.12449219 -7.55789063 6.56148438 -8.45703125 7.01171875 C-11 8 -11 8 -15 8 C-15 7.34 -15 6.68 -15 6 C-13.68 6 -12.36 6 -11 6 C-11 5.34 -11 4.68 -11 4 C-9.68 4 -8.36 4 -7 4 C-6.67 3.01 -6.34 2.02 -6 1 C-3 0 -3 0 0 0 Z " fill="#9C1D4F" transform="translate(423,462)"/>
<path d="M0 0 C0.96160467 3.40538196 0.97131252 5.55625563 0 9 C-0.99 10.485 -0.99 10.485 -2 12 C-2.56817302 13.21714128 -3.11003752 14.44690856 -3.625 15.6875 C-4.07875 16.780625 -4.5325 17.87375 -5 19 C-5.66 18.67 -6.32 18.34 -7 18 C-5.06375702 11.79522136 -2.74390859 5.89174281 0 0 Z " fill="#88294B" transform="translate(232,197)"/>
<path d="M0 0 C0.66 1.32 1.32 2.64 2 4 C0.92643323 5.15498897 -0.15929788 6.29867867 -1.25 7.4375 C-2.15492188 8.39462891 -2.15492188 8.39462891 -3.078125 9.37109375 C-5.10048016 11.08516306 -6.41270605 11.59358878 -9 12 C-7.55575365 8.76138697 -5.74227753 6.38030837 -3.375 3.75 C-2.74335938 3.04359375 -2.11171875 2.3371875 -1.4609375 1.609375 C-0.97882813 1.07828125 -0.49671875 0.5471875 0 0 Z " fill="#9C254F" transform="translate(176,280)"/>
<path d="M0 0 C0.99 0.99 1.98 1.98 3 3 C2.319375 4.0828125 2.319375 4.0828125 1.625 5.1875 C-0.05897519 7.91350648 -0.05897519 7.91350648 -1 10.75 C-1.33 11.4925 -1.66 12.235 -2 13 C-2.99 13.33 -3.98 13.66 -5 14 C-4.54636829 12.41531323 -4.08688548 10.83230076 -3.625 9.25 C-3.36976563 8.36828125 -3.11453125 7.4865625 -2.8515625 6.578125 C-2.0790066 4.23919428 -1.16374324 2.16557438 0 0 Z " fill="#A5305B" transform="translate(199,357)"/>
<path d="M0 0 C2.97204728 2.57041927 4.45278246 5.50486539 6.1875 9 C6.71730469 10.051875 7.24710937 11.10375 7.79296875 12.1875 C9 15 9 15 9 18 C8.34 18 7.68 18 7 18 C3.85180745 12.13784836 1.73624758 6.4188547 0 0 Z " fill="#5D3140" transform="translate(479,217)"/>
<path d="M0 0 C0.66 0 1.32 0 2 0 C2.33 1.32 2.66 2.64 3 4 C2.34 4 1.68 4 1 4 C0.34 5.32 -0.32 6.64 -1 8 C-1.66 8 -2.32 8 -3 8 C-3 8.66 -3 9.32 -3 10 C-3.66 10 -4.32 10 -5 10 C-4.49890042 5.61537866 -3.01704885 3.1999003 0 0 Z " fill="#9C1A49" transform="translate(245,292)"/>
<path d="M0 0 C0.33 0 0.66 0 1 0 C1 3.3 1 6.6 1 10 C0.34 10 -0.32 10 -1 10 C-1 11.32 -1 12.64 -1 14 C-1.99 13.67 -2.98 13.34 -4 13 C-3.52343588 11.20763933 -3.04366502 9.41613103 -2.5625 7.625 C-2.29566406 6.62726563 -2.02882813 5.62953125 -1.75390625 4.6015625 C-1 2 -1 2 0 0 Z " fill="#8B2D4D" transform="translate(435,370)"/>
<path d="M0 0 C0.33 0 0.66 0 1 0 C1.02696365 1.79158489 1.04637917 3.58328473 1.0625 5.375 C1.07410156 6.37273437 1.08570313 7.37046875 1.09765625 8.3984375 C1 11 1 11 0 13 C-0.66 13 -1.32 13 -2 13 C-2 14.32 -2 15.64 -2 17 C-2.66 16.67 -3.32 16.34 -4 16 C-3.66666667 14 -3.33333333 12 -3 10 C-2.855625 8.96875 -2.71125 7.9375 -2.5625 6.875 C-2.04359404 4.22281396 -1.34103019 2.32445234 0 0 Z " fill="#BE316A" transform="translate(143,349)"/>
<path d="M0 0 C0.33 0 0.66 0 1 0 C1.08117951 2.41734542 1.14056926 4.83194949 1.1875 7.25 C1.21263672 7.93191406 1.23777344 8.61382812 1.26367188 9.31640625 C1.31137459 12.59199289 1.21085076 14.65348556 -0.51171875 17.484375 C-1.00285156 17.98453125 -1.49398437 18.4846875 -2 19 C-1.85820962 16.77057252 -1.71140302 14.54146372 -1.5625 12.3125 C-1.48128906 11.07113281 -1.40007812 9.82976562 -1.31640625 8.55078125 C-1.05508683 5.61819663 -0.65201621 2.86558383 0 0 Z " fill="#EAC4D2" transform="translate(195,426)"/>
<path d="M0 0 C0.99 0.33 1.98 0.66 3 1 C1.73548068 2.31858428 0.46314525 3.62967631 -0.8125 4.9375 C-1.52019531 5.66839844 -2.22789062 6.39929688 -2.95703125 7.15234375 C-5 9 -5 9 -8 10 C-8 7 -8 7 -6.35546875 5.140625 C-5.64003906 4.51671875 -4.92460937 3.8928125 -4.1875 3.25 C-3.47980469 2.61578125 -2.77210938 1.9815625 -2.04296875 1.328125 C-1.36878906 0.88984375 -0.69460938 0.4515625 0 0 Z " fill="#981B48" transform="translate(399,434)"/>
<path d="M0 0 C1.11353866 3.74626219 0.80746732 5.47543872 -1 9 C-2.625 10.8125 -2.625 10.8125 -4 12 C-5 9 -5 9 -4.00390625 6.73828125 C-3.52824219 5.93777344 -3.05257812 5.13726562 -2.5625 4.3125 C-2.08941406 3.50425781 -1.61632812 2.69601562 -1.12890625 1.86328125 C-0.75636719 1.24839844 -0.38382813 0.63351562 0 0 Z " fill="#AB2459" transform="translate(199,434)"/>
<path d="M0 0 C0.66 0.99 1.32 1.98 2 3 C1.1875 4.9375 1.1875 4.9375 0 7 C-3 8 -3 8 -6 7 C-4.02 4.69 -2.04 2.38 0 0 Z " fill="#9D2954" transform="translate(230,311)"/>
<path d="M0 0 C1.1875 1.6875 1.1875 1.6875 2 4 C0.67172689 6.85578718 -0.14643942 8.57321971 -3 10 C-3.75 7.8125 -3.75 7.8125 -4 5 C-2.0625 2.1875 -2.0625 2.1875 0 0 Z " fill="#AD2F64" transform="translate(187,467)"/>
<path d="M0 0 C1.65 0.99 3.3 1.98 5 3 C3.68 4.32 2.36 5.64 1 7 C0.67 6.34 0.34 5.68 0 5 C-0.99 4.67 -1.98 4.34 -3 4 C-2.01 2.68 -1.02 1.36 0 0 Z " fill="#9A2750" transform="translate(210,299)"/>
<path d="M0 0 C3.96 0 7.92 0 12 0 C11.67 1.32 11.34 2.64 11 4 C7.37 3.01 3.74 2.02 0 1 C0 0.67 0 0.34 0 0 Z " fill="#DED9DF" transform="translate(314,296)"/>
<path d="M0 0 C0.66 0 1.32 0 2 0 C2 0.66 2 1.32 2 2 C3.32 1.67 4.64 1.34 6 1 C6.2475 1.598125 6.495 2.19625 6.75 2.8125 C8.16370012 5.28647521 9.65055383 6.43370255 12 8 C11.67 8.66 11.34 9.32 11 10 C9.16106176 8.71632558 7.32897375 7.42283239 5.5 6.125 C4.4790625 5.40570313 3.458125 4.68640625 2.40625 3.9453125 C1.6121875 3.30335938 0.818125 2.66140625 0 2 C0 1.34 0 0.68 0 0 Z " fill="#6D3047" transform="translate(374,172)"/>
<path d="M0 0 C3.96 0.33 7.92 0.66 12 1 C10.68 1.33 9.36 1.66 8 2 C8 2.66 8 3.32 8 4 C6.88625 3.814375 5.7725 3.62875 4.625 3.4375 C1.17431139 2.68319343 1.17431139 2.68319343 -1 4 C-0.67 2.68 -0.34 1.36 0 0 Z " fill="#AD3063" transform="translate(244,468)"/>
<path d="M0 0 C3.83132316 1.56090944 6.1075134 4.1075134 9 7 C9.99 7.33 10.98 7.66 12 8 C11.67 9.32 11.34 10.64 11 12 C9.16364422 10.19047409 7.33083792 8.37759362 5.5 6.5625 C4.97535156 6.04623047 4.45070313 5.52996094 3.91015625 4.99804688 C2.58775448 3.68423213 1.29164432 2.34406495 0 1 C0 0.67 0 0.34 0 0 Z " fill="#572236" transform="translate(394,188)"/>
<path d="M0 0 C3.98069267 2.87494471 6.43571997 5.82117329 9 10 C6 10 6 10 4 9 C4 8.01 4 7.02 4 6 C3.34 6 2.68 6 2 6 C1.34 4.02 0.68 2.04 0 0 Z " fill="#5D3545" transform="translate(457,186)"/>
<path d="M0 0 C5.54050113 0.56825653 10.03715966 2.62886517 15 5 C15 5.33 15 5.66 15 6 C13.35 6 11.7 6 10 6 C10 5.34 10 4.68 10 4 C8.906875 3.896875 7.81375 3.79375 6.6875 3.6875 C3.14440371 3.02692273 2.06756277 2.7972908 0 0 Z " fill="#522838" transform="translate(398,148)"/>
<path d="M0 0 C0.66 0.33 1.32 0.66 2 1 C1.01 3.97 0.02 6.94 -1 10 C-1.99 10 -2.98 10 -4 10 C-2.8905928 6.51329166 -1.73662334 3.22515763 0 0 Z " fill="#A42B58" transform="translate(204,347)"/>
<path d="M0 0 C0.33 0.99 0.66 1.98 1 3 C2.65 3 4.3 3 6 3 C4.63016497 6.16115776 4.0109362 6.9927092 1 9 C0.66666667 7.66666667 0.33333333 6.33333333 0 5 C-0.20625 4.278125 -0.4125 3.55625 -0.625 2.8125 C-0.74875 2.214375 -0.8725 1.61625 -1 1 C-0.67 0.67 -0.34 0.34 0 0 Z " fill="#9A2750" transform="translate(217,291)"/>
<path d="M0 0 C0.33 0 0.66 0 1 0 C1 4.62 1 9.24 1 14 C0.01 14.495 0.01 14.495 -1 15 C-1.38218767 13.34385343 -1.71395102 11.67542976 -2 10 C-1.67 9.67 -1.34 9.34 -1 9 C-0.76807135 7.48530552 -0.58784762 5.96245438 -0.4375 4.4375 C-0.35371094 3.61121094 -0.26992187 2.78492188 -0.18359375 1.93359375 C-0.12300781 1.29550781 -0.06242188 0.65742188 0 0 Z " fill="#A74067" transform="translate(191,450)"/>
<path d="M0 0 C-2.90092502 1.93395001 -3.89674737 2.30131941 -7.1875 2.625 C-8.445625 2.74875 -9.70375 2.8725 -11 3 C-10 1 -10 1 -7.75 -0.1875 C-4.69751418 -1.08937081 -3.02265546 -0.86361585 0 0 Z " fill="#A11E52" transform="translate(251,353)"/>
<path d="M0 0 C0.33 0 0.66 0 1 0 C2.0070238 5.03511899 1.97387813 8.23947038 0 13 C-0.33 13 -0.66 13 -1 13 C-1.02686553 11.02090602 -1.04633375 9.04171029 -1.0625 7.0625 C-1.07410156 5.96035156 -1.08570312 4.85820312 -1.09765625 3.72265625 C-1 1 -1 1 0 0 Z " fill="#AE134D" transform="translate(125,291)"/>
<path d="M0 0 C1.1484375 1.734375 1.1484375 1.734375 2 4 C1.1015625 6.140625 1.1015625 6.140625 -0.375 8.25 C-0.85710937 8.95640625 -1.33921875 9.6628125 -1.8359375 10.390625 C-2.22007812 10.92171875 -2.60421875 11.4528125 -3 12 C-4 10 -4 10 -3.22265625 7.6171875 C-2.83980469 6.71226562 -2.45695313 5.80734375 -2.0625 4.875 C-1.68222656 3.96492187 -1.30195313 3.05484375 -0.91015625 2.1171875 C-0.60980469 1.41851562 -0.30945313 0.71984375 0 0 Z " fill="#87274A" transform="translate(250,231)"/>
<path d="M0 0 C2.49505962 2.49505962 2.35948376 3.67328888 2.625 7.125 C2.69976562 8.03507813 2.77453125 8.94515625 2.8515625 9.8828125 C2.92503906 10.93082031 2.92503906 10.93082031 3 12 C2.01 11.67 1.02 11.34 0 11 C-1.125 3.375 -1.125 3.375 0 0 Z " fill="#922C4E" transform="translate(224,149)"/>
<path d="M0 0 C3.39417765 3.12621626 5.6062718 5.56541027 7 10 C6.01 9.67 5.02 9.34 4 9 C3.66666667 7.66666667 3.33333333 6.33333333 3 5 C2.01 4.67 1.02 4.34 0 4 C0 2.68 0 1.36 0 0 Z " fill="#582E3F" transform="translate(466,197)"/>
<path d="M0 0 C0.33 0 0.66 0 1 0 C1.17835515 4.54805635 0.99785435 7.8794254 -1 12 C-1.66 12 -2.32 12 -3 12 C-2.14285714 3.42857143 -2.14285714 3.42857143 0 0 Z " fill="#923254" transform="translate(238,171)"/>
<path d="M0 0 C0.66 0.33 1.32 0.66 2 1 C1.195625 1.86625 0.39125 2.7325 -0.4375 3.625 C-2.96924136 6.62876093 -3.71657376 9.03203262 -4 13 C-4.33 13 -4.66 13 -5 13 C-5.61538462 5.73846154 -5.61538462 5.73846154 -2.5 2 C-1.675 1.34 -0.85 0.68 0 0 Z " fill="#E6C9D7" transform="translate(322,308)"/>
<path d="M0 0 C0.33 0 0.66 0 1 0 C1.33 4.29 1.66 8.58 2 13 C-0.80390987 10.19609013 -0.66520791 7.88358829 -1 4 C-0.5625 1.5625 -0.5625 1.5625 0 0 Z " fill="#A74B6D" transform="translate(125,300)"/>
<path d="M0 0 C0.33 0 0.66 0 1 0 C1.33 3.63 1.66 7.26 2 11 C1.01 11.495 1.01 11.495 0 12 C-0.92844389 7.66726186 -0.92844389 4.33273814 0 0 Z " fill="#924664" transform="translate(293,183)"/>
<path d="M0 0 C0.66 0.33 1.32 0.66 2 1 C2 1.99 2 2.98 2 4 C2.66 4 3.32 4 4 4 C3.67 4.99 3.34 5.98 3 7 C0.69 5.35 -1.62 3.7 -4 2 C-3.01 2 -2.02 2 -1 2 C-0.67 1.34 -0.34 0.68 0 0 Z " fill="#6A223B" transform="translate(296,137)"/>
<path d="M0 0 C1.65 0.33 3.3 0.66 5 1 C4.34 2.32 3.68 3.64 3 5 C1.68 5 0.36 5 -1 5 C-0.67 3.35 -0.34 1.7 0 0 Z " fill="#941B4A" transform="translate(433,451)"/>
<path d="M0 0 C0.66 0.33 1.32 0.66 2 1 C1.65120368 4.25543229 0.97866739 5.01873107 -1.5625 7.25 C-2.7690625 8.11625 -2.7690625 8.11625 -4 9 C-3.46930939 5.17902761 -2.50298434 2.93828597 0 0 Z " fill="#9E2650" transform="translate(236,303)"/>
<path d="M0 0 C0.99 0.33 1.98 0.66 3 1 C2.67 2.32 2.34 3.64 2 5 C0.35 4.67 -1.3 4.34 -3 4 C-2.67 3.01 -2.34 2.02 -2 1 C-1.34 0.67 -0.68 0.34 0 0 Z " fill="#971342" transform="translate(221,290)"/>
<path d="M0 0 C0.66 0 1.32 0 2 0 C1.34 2.97 0.68 5.94 0 9 C-2 7 -2 7 -2.125 4.375 C-2.08375 3.59125 -2.0425 2.8075 -2 2 C-1.34 2 -0.68 2 0 2 C0 1.34 0 0.68 0 0 Z " fill="#AD2859" transform="translate(130,284)"/>
<path d="M0 0 C0.66 0.33 1.32 0.66 2 1 C1.34 4.3 0.68 7.6 0 11 C-0.33 11 -0.66 11 -1 11 C-1.22174933 9.54364629 -1.42698698 8.08477044 -1.625 6.625 C-1.74101563 5.81289063 -1.85703125 5.00078125 -1.9765625 4.1640625 C-1.98429687 3.44992187 -1.99203125 2.73578125 -2 2 C-1.34 1.34 -0.68 0.68 0 0 Z " fill="#AC2253" transform="translate(126,279)"/>
<path d="M0 0 C2.7972908 2.06756277 3.02692273 3.14440371 3.6875 6.6875 C3.790625 7.780625 3.89375 8.87375 4 10 C3.34 10 2.68 10 2 10 C2 8.35 2 6.7 2 5 C1.34 5 0.68 5 0 5 C0 3.35 0 1.7 0 0 Z " fill="#603443" transform="translate(488,236)"/>
<path d="M0 0 C2.64 0.33 5.28 0.66 8 1 C6.515 2.485 6.515 2.485 5 4 C2.525 3.01 2.525 3.01 0 2 C0 1.34 0 0.68 0 0 Z " fill="#B4366A" transform="translate(263,471)"/>
<path d="M0 0 C0 0.99 0 1.98 0 3 C-2.8125 3.625 -2.8125 3.625 -6 4 C-6.99 3.34 -7.98 2.68 -9 2 C-2.25 0 -2.25 0 0 0 Z " fill="#A73E65" transform="translate(347,467)"/>
<path d="M0 0 C0.33 0 0.66 0 1 0 C0.67 3.63 0.34 7.26 0 11 C-0.66 10.34 -1.32 9.68 -2 9 C-1.45652174 2.91304348 -1.45652174 2.91304348 0 0 Z " fill="#A62B5C" transform="translate(197,412)"/>
<path d="M0 0 C0.66 0 1.32 0 2 0 C1.125 6.75 1.125 6.75 0 9 C-0.66 9 -1.32 9 -2 9 C-1.34 6.03 -0.68 3.06 0 0 Z " fill="#AC1C57" transform="translate(202,396)"/>
<path d="M0 0 C0.66 0.33 1.32 0.66 2 1 C2 1.66 2 2.32 2 3 C1.01 3.66 0.02 4.32 -1 5 C-1.72382467 7.05925139 -1.72382467 7.05925139 -2 9 C-2.99 9 -3.98 9 -5 9 C-3.7508258 5.54074837 -2.32472205 2.85306797 0 0 Z " fill="#ECDBE9" transform="translate(140,271)"/>
<path d="M0 0 C0.33 0.99 0.66 1.98 1 3 C-1.04074305 6.57130033 -2.55753136 8.7050209 -6 11 C-4.54955729 6.89041233 -2.48889248 3.56741255 0 0 Z " fill="#ECD7E3" transform="translate(223,246)"/>
<path d="M0 0 C3 1 3 1 4 3 C4.039992 4.99960012 4.04346799 7.00047242 4 9 C1.49701566 6.06171403 0.53069061 3.82097239 0 0 Z " fill="#66213B" transform="translate(427,233)"/>
<path d="M0 0 C1.73267972 2.59901958 2.48482049 4.13842116 3.25 7.0625 C3.44078125 7.75472656 3.6315625 8.44695312 3.828125 9.16015625 C3.88484375 9.76730469 3.9415625 10.37445313 4 11 C3.34 11.66 2.68 12.32 2 13 C1.05675742 8.68803391 0.51958285 4.37934119 0 0 Z " fill="#873C5A" transform="translate(295,198)"/>
<path d="M0 0 C2.23551759 3.35327639 2.17283528 3.90743657 1.625 7.6875 C1.51414063 8.49574219 1.40328125 9.30398437 1.2890625 10.13671875 C1.19367188 10.75160156 1.09828125 11.36648437 1 12 C0.67 12 0.34 12 0 12 C-1.28571429 3.42857143 -1.28571429 3.42857143 0 0 Z " fill="#871E41" transform="translate(239,164)"/>
<path d="M0 0 C1.485 0.99 1.485 0.99 3 2 C2.34 4.31 1.68 6.62 1 9 C0.67 9 0.34 9 0 9 C-1.125 2.25 -1.125 2.25 0 0 Z " fill="#B32B5F" transform="translate(138,333)"/>
<path d="M0 0 C1.32 0 2.64 0 4 0 C4.33 1.32 4.66 2.64 5 4 C4.01 4.495 4.01 4.495 3 5 C2.01 4.67 1.02 4.34 0 4 C0 2.68 0 1.36 0 0 Z " fill="#9D1B51" transform="translate(154,250)"/>
<path d="M0 0 C1.46015291 0.28241641 2.91809793 0.57626614 4.375 0.875 C5.18710937 1.03742188 5.99921875 1.19984375 6.8359375 1.3671875 C9 2 9 2 11 4 C8 5 8 5 5.95703125 4.22265625 C5.24933594 3.83980469 4.54164063 3.45695313 3.8125 3.0625 C3.09707031 2.68222656 2.38164062 2.30195313 1.64453125 1.91015625 C1.10183594 1.60980469 0.55914062 1.30945313 0 1 C0 0.67 0 0.34 0 0 Z " fill="#5D2238" transform="translate(361,166)"/>
<path d="M0 0 C0.66 0 1.32 0 2 0 C3.09658936 3.28976808 2.79953138 4.71303767 2 8 C1.34 8 0.68 8 0 8 C0 5.36 0 2.72 0 0 Z " fill="#B92A5B" transform="translate(142,484)"/>
<path d="M0 0 C2.97 0.495 2.97 0.495 6 1 C4.625 3 4.625 3 3 5 C2.34 5 1.68 5 1 5 C0.67 3.35 0.34 1.7 0 0 Z " fill="#AC2665" transform="translate(169,481)"/>
<path d="M0 0 C0.66 0 1.32 0 2 0 C0.63016497 3.16115776 0.0109362 3.9927092 -3 6 C-3.33 4.68 -3.66 3.36 -4 2 C-2.68 2 -1.36 2 0 2 C0 1.34 0 0.68 0 0 Z " fill="#891540" transform="translate(460,430)"/>
<path d="M0 0 C0.99 0.33 1.98 0.66 3 1 C3.125 3.875 3.125 3.875 3 7 C2.34 7.66 1.68 8.32 1 9 C-0.4783226 6.04335481 -0.06032783 3.25770263 0 0 Z " fill="#814159" transform="translate(499,283)"/>
<path d="M0 0 C1 3 1 3 0.25 5.5625 C-1 8 -1 8 -4 10 C-2.8905928 6.51329166 -1.73662334 3.22515763 0 0 Z " fill="#86264A" transform="translate(259,269)"/>
<path d="M0 0 C0.33 0.66 0.66 1.32 1 2 C1.66 2 2.32 2 3 2 C3 4.64 3 7.28 3 10 C0.70366176 6.55549263 0.45983515 4.06187717 0 0 Z " fill="#5D253A" transform="translate(435,254)"/>
<path d="M0 0 C2.7558573 4.13378595 3.10756445 6.05203546 3 11 C2.67 9.68 2.34 8.36 2 7 C1.34 7 0.68 7 0 7 C0 4.69 0 2.38 0 0 Z " fill="#562434" transform="translate(494,253)"/>
<path d="M0 0 C1.04005702 3.38018531 1.08004482 6.4780279 1 10 C0.34 10 -0.32 10 -1 10 C-2.46726798 6.18510326 -1.43336419 3.70988378 0 0 Z " fill="#E5D4DD" transform="translate(263,238)"/>
<path d="M0 0 C0.66 1.32 1.32 2.64 2 4 C1.01 5.485 1.01 5.485 0 7 C-0.99 6.67 -1.98 6.34 -3 6 C-2.01 4.02 -1.02 2.04 0 0 Z " fill="#8B1942" transform="translate(221,222)"/>
<path d="M0 0 C0.66 0.99 1.32 1.98 2 3 C0.69593116 5.01920337 -0.63823419 7.01924973 -2 9 C-2.33 9 -2.66 9 -3 9 C-3 7.35 -3 5.7 -3 4 C-2.34 4 -1.68 4 -1 4 C-0.67 2.68 -0.34 1.36 0 0 Z " fill="#862A4E" transform="translate(205,162)"/>
<path d="M0 0 C2.64 0 5.28 0 8 0 C7.34 1.32 6.68 2.64 6 4 C1.125 2.25 1.125 2.25 0 0 Z " fill="#752B44" transform="translate(289,136)"/>
</svg>
